<?xml version="1.0" encoding="UTF-8" standalone="no"?>
<!DOCTYPE svg PUBLIC "-//W3C//DTD SVG 1.1//EN" "http://www.w3.org/Graphics/SVG/1.1/DTD/svg11.dtd">
<svg width="100%" height="100%" viewBox="0 0 140 82" version="1.1" xmlns="http://www.w3.org/2000/svg" xmlns:xlink="http://www.w3.org/1999/xlink" xml:space="preserve" xmlns:serif="http://www.serif.com/" style="fill-rule:evenodd;clip-rule:evenodd;stroke-linejoin:round;stroke-miterlimit:2;">
    <g transform="matrix(1,0,0,1,-21.3595,-42.2472)">
        <g id="uk" transform="matrix(4.16667,0,0,4.16667,-1463.05,-1024.86)">
            <rect x="356.259" y="256.105" width="33.562" height="19.578" style="fill:white;"/>
            <clipPath id="_clip1">
                <rect x="356.259" y="256.105" width="33.562" height="19.578"/>
            </clipPath>
            <g clip-path="url(#_clip1)">
                <path d="M378.731,263.184L389.821,256.976L389.821,256.105L389.057,256.105L376.412,263.184L378.731,263.184Z" style="fill:rgb(189,31,55);fill-rule:nonzero;"/>
                <path d="M378.208,268.997L389.821,275.496L389.821,274.197L380.528,268.997L378.208,268.997Z" style="fill:rgb(189,31,55);fill-rule:nonzero;"/>
                <path d="M356.259,257.596L366.193,263.184L368.515,263.184L356.259,256.296L356.259,257.596Z" style="fill:rgb(189,31,55);fill-rule:nonzero;"/>
                <path d="M367.988,268.997L356.259,275.569L356.259,275.683L358.378,275.683L370.311,268.997L367.988,268.997Z" style="fill:rgb(189,31,55);fill-rule:nonzero;"/>
                <path d="M387.524,256.105L375.773,256.105L375.773,262.687L387.524,256.105Z" style="fill:rgb(44,47,119);fill-rule:nonzero;"/>
                <path d="M370.585,256.105L358.881,256.105L370.585,262.687L370.585,256.105Z" style="fill:rgb(44,47,119);fill-rule:nonzero;"/>
                <path d="M389.821,263.184L389.821,258.692L381.85,263.184L389.821,263.184Z" style="fill:rgb(44,47,119);fill-rule:nonzero;"/>
                <path d="M389.821,273.44L389.821,268.997L381.85,268.997L389.821,273.44Z" style="fill:rgb(44,47,119);fill-rule:nonzero;"/>
                <path d="M359.545,275.683L370.585,275.683L370.585,269.496L359.545,275.683Z" style="fill:rgb(44,47,119);fill-rule:nonzero;"/>
                <path d="M375.773,275.683L386.849,275.683L375.773,269.496L375.773,275.683Z" style="fill:rgb(44,47,119);fill-rule:nonzero;"/>
                <path d="M356.259,268.997L356.259,273.641L364.508,268.997L356.259,268.997Z" style="fill:rgb(44,47,119);fill-rule:nonzero;"/>
                <path d="M356.259,263.184L364.508,263.184L356.259,258.533L356.259,263.184Z" style="fill:rgb(44,47,119);fill-rule:nonzero;"/>
                <path d="M371.623,256.105L371.623,264.347L356.259,264.347L356.259,267.837L371.623,267.837L371.623,275.683L374.735,275.683L374.735,267.837L389.821,267.837L389.821,264.347L374.735,264.347L374.735,256.105L371.623,256.105Z" style="fill:rgb(189,31,55);fill-rule:nonzero;"/>
            </g>
        </g>
    </g>
</svg>
